<svg width="27" height="31" viewBox="0 0 27 31" fill="none" xmlns="http://www.w3.org/2000/svg">
<path d="M16.5 14.725C16.9925 14.725 17.4801 14.6248 17.9351 14.43C18.39 14.2353 18.8034 13.9499 19.1516 13.59C19.4999 13.2302 19.7761 12.803 19.9645 12.3329C20.153 11.8628 20.25 11.3589 20.25 10.85C20.25 9.82229 19.8549 8.83667 19.1516 8.10996C18.4484 7.38326 17.4946 6.975 16.5 6.975C15.5054 6.975 14.5516 7.38326 13.8483 8.10996C13.1451 8.83667 12.75 9.82229 12.75 10.85C12.75 11.3589 12.847 11.8628 13.0355 12.3329C13.2239 12.803 13.5001 13.2302 13.8483 13.59C14.5516 14.3167 15.5054 14.725 16.5 14.725ZM16.5 0C22.29 0 27 4.8515 27 10.85C27 18.9875 16.5 31 16.5 31C16.5 31 6 18.9875 6 10.85C6 7.9724 7.10625 5.21266 9.07538 3.17789C11.0445 1.14312 13.7152 0 16.5 0ZM3 10.85C3 17.825 10.62 27.373 12 29.1555L10.5 31C10.5 31 0 18.9875 0 10.85C0 5.9365 3.165 1.7825 7.5 0.4495C4.74 3.007 3 6.7115 3 10.85Z" fill="#FFDBBE"/>
</svg>
